<?xml version="1.0" encoding="utf-8"?>
<!-- Generator: Adobe Illustrator 21.1.0, SVG Export Plug-In . SVG Version: 6.00 Build 0)  -->
<svg version="1.1" id="Layer_1" xmlns="http://www.w3.org/2000/svg" xmlns:xlink="http://www.w3.org/1999/xlink" x="0px" y="0px"
	 viewBox="0 0 640 480" style="enable-background:new 0 0 640 480;" xml:space="preserve">
<style type="text/css">
	.st0{fill:#0073CF;}
	.st1{fill:#FECB00;}
	.st2{fill:#FFFFFF;}
</style>
<g>
	<path class="st0" d="M0,0h640v480H0V0z"/>
	<path class="st1" d="M353.6,167.6c0,18-14.6,32.6-32.6,32.6c-18,0-32.6-14.6-32.6-32.6c0-18,14.6-32.6,32.6-32.6
		S353.6,149.6,353.6,167.6C353.6,167.6,353.6,167.6,353.6,167.6z"/>
	<path class="st2" d="M268.3,46.3c-55,1-111.6,133.2,20.5,200.2v187.2h16.8V242.5c-14-4.6-61.8-35.5-61.8-75.9
		c0-16.9,10.6-44.8,30.7-57.7c12.3-7.9,24.5-16,24.5-32.6S285.6,46.3,269,46.3C268.7,46.3,268.5,46.3,268.3,46.3L268.3,46.3z
		 M372.1,46.3c-16.2,0.5-29.1,13.8-29.1,30.1c0,16.6,12.1,24.7,24.5,32.6c20.2,12.9,30.7,40.8,30.7,57.7c0,40.4-47.8,71.3-61.8,75.9
		v191.2h16.8V246.5C485.8,179.2,428.2,46.3,373,46.3C372.7,46.3,372.4,46.3,372.1,46.3L372.1,46.3z M180.8,93.3
		c-14.7,0.6-24.7,11.4-24.7,28.2c0,31.2,54.1,113.2,109.6,133.8v178.4h16.8v-186C252,230.7,227,208.7,215,183.1
		c-11.3-24.2-11.5-41.3-11.5-50.2c0-12.1,1.1-11.1,1.1-18.7c0-19.3-16.7-20.9-23.4-20.9C181.1,93.3,181,93.3,180.8,93.3L180.8,93.3z
		 M459.6,93.3c-7.3,0.2-22.3,2.7-22.3,20.9c0,7.6,1.1,6.7,1.1,18.7c0,8.9-0.2,26-11.5,50.2c-11.9,25.6-37,47.6-67.5,64.6v186h16.8
		V255.3c55.5-20.5,109.6-102.6,109.6-133.8c0-16.9-10.2-27.7-25.1-28.2C460.4,93.3,460.1,93.3,459.6,93.3L459.6,93.3z M142.9,140.6
		c-8.1,0.4-15.6,6.5-15.6,17.9c0,3.7-0.3,8.9,9.8,21.4c28.6,35.3,91.5,78.6,105.5,81.7v172.2h16.8V256.5c-32.4-14.3-79-60-99.3-105
		C156.7,143.9,149.6,140.3,142.9,140.6L142.9,140.6z M497.4,140.6c-6.2,0.3-12.4,3.9-15.5,10.9c-20.4,45.1-67,90.7-99.3,105v177.2
		h16.8V261.6c14-3.1,76.9-46.3,105.5-81.7c10.1-12.4,9.8-17.7,9.8-21.4C514.7,146.3,506.1,140.2,497.4,140.6L497.4,140.6z
		 M122.7,179.4c-8,0.6-13.6,9.1-13.6,14.2c0,18.1,83.2,72.9,107.8,75.5v164.7h19.5V262.8c-19.1-8.4-80.4-52.7-98.4-74.8
		C132.5,181.3,127.2,179.1,122.7,179.4L122.7,179.4z M517.6,179.4c-4.1,0.3-8.8,2.7-13.6,8.6c-18,22.1-79.3,66.4-98.4,74.8v170.9
		h19.5V269.1c24.6-2.6,107.8-57.3,107.8-75.5C532.9,188.2,526.5,178.8,517.6,179.4L517.6,179.4z M311.9,243.1v190.6h9.1h9.1V243.1
		H321H311.9z"/>
</g>
</svg>
