<?xml version="1.0" encoding="utf-8"?>
<!-- Generator: Adobe Illustrator 21.1.0, SVG Export Plug-In . SVG Version: 6.00 Build 0)  -->
<svg version="1.1" id="Layer_1" xmlns="http://www.w3.org/2000/svg" xmlns:xlink="http://www.w3.org/1999/xlink" x="0px" y="0px"
	 viewBox="0 0 640 480" style="enable-background:new 0 0 640 480;" xml:space="preserve">
<style type="text/css">
	.st0{fill:#0000CC;}
	.st1{fill:none;stroke:#FFFFFF;stroke-width:19.0476;}
</style>
<g id="g3758">
	<rect id="rect3763" x="0" y="0" class="st0" width="640.1" height="480.1"/>
	<path id="path3780-6-4" inkscape:connector-curvature="0" class="st1" d="M320.5,392.5c72.9-48.6,97.8-156.2,55.8-240.4
		c-13.4-26.8-32.6-49-55.8-64.4 M320.5,392.5c-72.9-48.6-97.8-156.2-55.8-240.4c13.4-26.8,32.6-49,55.8-64.4 M320.5,392.5V87.7
		 M472.9,240.1H168 M428.2,347.9c-27.8-27.4-98.5-39.2-158-26.4c-25.3,5.4-45.7,14.8-57.5,26.4 M428.2,132.3
		c-27.8,27.4-98.5,39.2-158,26.4c-25.3-5.4-45.7-14.8-57.5-26.4 M472.9,240.1c0,84.2-68.2,152.4-152.4,152.4S168,324.3,168,240.1
		S236.3,87.7,320.5,87.7S472.9,155.9,472.9,240.1L472.9,240.1z"/>
</g>
</svg>
